<svg id="Layer_1" data-name="Layer 1" xmlns="http://www.w3.org/2000/svg" viewBox="0 0 1440 1440"><defs><style>.cls-1{fill:#e41e2d;fill-rule:evenodd;}.cls-2{fill:#fff;}.cls-3{fill:#010101;}</style></defs><title>Official Logo</title><g id="Page-1"><path id="Combined-Shape" class="cls-1" d="M1152,414.74c66.77,24.43,185.55,43.62,147.75,227.36s-66.48,282-80.44,321.95-39.43,129-127.65,152.65-546.4,85.22-605.72,88.45-188.14,5.73-232.21-67.84S194,897.09,180.15,773.19,129.53,435.74,174.44,332s82.27-115,203.46-94.71S1085.24,390.3,1152,414.74Z"/></g><polygon class="cls-2" points="334.58 582.62 332.6 807.07 402.32 827.35 467.85 784.2 484.89 792.73 519.44 814.03 664.42 810.84 764.51 811.75 826.21 809.61 827.74 804.35 833.46 809.36 944.63 805.51 970.72 801.4 1006.96 812.97 1095.39 809.24 1093.56 652.7 1025.18 653.67 1025.8 667.34 1018.86 658.52 996.59 653.06 976 658.94 956.88 672.81 938.61 653.48 898.8 653.88 828.94 654.35 761.71 654.11 759.61 685.83 733.34 665.24 717.53 655.58 700.94 653.69 681.45 657.05 666.95 663.35 660.26 652.26 617.44 653.33 612.54 668.39 600.36 654.11 560.68 652.25 570.31 686.25 550.14 663.35 534.17 656.21 517.79 653.35 501.4 656.21 484.17 664.82 469.05 619.02 442.15 594.65 416.1 584.36 382.18 584.99 334.58 582.62"/><path d="M384.12,671.77h6.75c3.51,0,6.7-.42,9.63-2.1s6.75-5.85,7.1-14.25-.93-11.54-3.72-15.42-8.72-5.08-10.56-5.08h-9.2c-1.41,0-2.05,1.28-2,2.74,0,0,0,30.79,0,32.12A2.06,2.06,0,0,0,384.12,671.77ZM394,717.23h-9.69c-1.49,0-2.16,1.36-2.13,2.91,0,0,0,32.73,0,34.14a2.18,2.18,0,0,0,2.1,2.12h7.12c3.69,0,7.06-.45,10.14-2.23s7.12-6.22,7.48-15.15-1-12.26-3.92-16.39S395.94,717.23,394,717.23Zm125.23-18c-6.88.06-10.94,4.47-14.41,15.83-3.25,10.6-2.3,28.59,1.41,38.3s10.29,11.35,13.65,11.06,8.94-2.18,12.06-9.24,5.53-19.65,3.11-34.88S526.41,699.13,519.23,699.19Zm607,18.6V678a2.22,2.22,0,0,0-.94-1.75c-.51-.39-30.57-22.76-31.69-23.59s-1.24-1.06-2.6-1.06h-63.66c-1.8,0-2.08,1.06-2.11,2s0,7,0,7a44.24,44.24,0,0,0-16.4-7.85c-10.11-2.59-22.33-.5-31.67,3.71a48.77,48.77,0,0,0-15.54,11.56s-19.79-14.9-20.72-15.73a2.72,2.72,0,0,0-1.86-.76H901.36a2.45,2.45,0,0,0-2,.67,2.14,2.14,0,0,0-.61,1.59s-1.89-1.46-2.42-1.8a2.31,2.31,0,0,0-1.59-.48c-.65.06-32.26,0-32.26,0H832.8l-1.28,0a2.68,2.68,0,0,0-2.12.8,2.92,2.92,0,0,0-.46,1.93s-2.57-1.84-3-2.16a3,3,0,0,0-1.94-.6H760.58a2.26,2.26,0,0,0-2.26,2.3c0,1,0,28.32,0,28.32s-24.64-19.32-25.58-20.07A46.68,46.68,0,0,0,720,654.71c-6.8-2.7-15.9-3.34-18.34-3.34a55.64,55.64,0,0,0-17.6,2.61,48.27,48.27,0,0,0-12.37,6.07l-9.45-7a2.84,2.84,0,0,0-2-.74H619.19a2,2,0,0,0-1.75,1.07c-.19.41-3.59,8-3.59,8s-10.1-7.48-11.14-8.28a2.6,2.6,0,0,0-2-.81h-40a2.29,2.29,0,0,0-2.16.9c-.6.68-.38,1.57,0,2.52.7,1.75,8,21.44,8,21.44s-6.55-6.74-11-10.89S543,653,523.45,651.58s-32.33,7.88-32.33,7.88c-2.51-13.41-7.63-28.94-23.5-46.64-10.45-11.64-24.55-20.14-30.88-23-4.85-2.16-13.86-6.85-30.65-7.24H334.58a2.11,2.11,0,0,0-2,2.19V807.07c0,2.46.38,2.85,1.15,3.45s28,23,29.16,24.08,1.65.82,2.9.82,42.69,0,65.07,0c21.27,0,32.54-5.07,42.54-14.41,9.81-9.17,14.43-23.43,14.43-23.43s21.9,16.38,29.95,22.25,20.24,7.47,21.29,7.55,6.38,1.08,16.35-.67a47.65,47.65,0,0,0,17.65-7.3s13.08,9.68,14,10.41a3.1,3.1,0,0,0,2.38.83h40.77a2.28,2.28,0,0,0,2.23-1.37c.31-.65,4.31-9.34,4.31-9.34S649,829,650,829.83a3,3,0,0,0,2.21.81h39.61a2.37,2.37,0,0,0,2.21-.86,1.8,1.8,0,0,0,.23-1.93c-.26-.65-6.31-16.46-6.31-16.46s5.89,4,10.9,7.28,12.75,8.2,24.56,8.88,19.19-1.46,27.06-5,14-10.8,14-10.8,23.59,17.08,24.47,17.7,1.33,1.2,2.6,1.2h35.75a2,2,0,0,0,2.15-2.14V807.68s30.15,21.83,30.67,22.25a2.41,2.41,0,0,0,1.86.7c1,0,33.7,0,35.73,0a2.12,2.12,0,0,0,2.33-2.33V808.69l27.65,20.49a4.66,4.66,0,0,0,3.12,1.51h37.1c2.55,0,2.78-1.67,2.78-2.78V801.4s25.64,18.67,33.28,24.14c6.77,4.85,19.37,7,24.34,7a49.59,49.59,0,0,0,13.41-2c3.27-1,9.64-3.88,9.64-3.88s6.64,5,7.24,5.42a2.34,2.34,0,0,0,1.6.51h63.89a2,2,0,0,0,2.06-2.06V791.36a2.3,2.3,0,0,0-1-1.77L1097.65,769h23.49a2.16,2.16,0,0,0,2-2V739.57a2.61,2.61,0,0,0-1.1-2.11c-.47-.36-23.76-17.61-23.76-17.61h26A2.14,2.14,0,0,0,1126.18,717.79ZM456.67,760.7c-1.51,7.37-5.48,19.23-10.07,25s-13.38,18.57-34.75,20.08-48.38.7-51.54.7H336.74l.05-219.75h70.52c7.58,0,24.9,2.72,34.39,11.66,10,9.41,15.76,22.65,15.84,43.78s-4.51,34.62-8.14,40.43-6.54,8.78-9.15,10.74-4.25,3-4.82,3.36a2,2,0,0,0,0,2.86c1.06.78,8.31,5.57,10.89,8.72s8.43,9.25,10.39,19.61S458.18,753.33,456.67,760.7Zm62.74,43.15c-22.89-.06-39.24-13.22-46.95-37.47-7.35-23.12-5.18-51.6-1.12-68,4.37-17.67,15.06-42.06,48-42.83,4.11-.09,17.29.47,28.12,8.89s18.47,20.76,21.53,39.41,3.12,26.3,1.76,38.06S567.45,770.72,559,783C552.94,791.85,540.76,803.91,519.41,803.85Zm103.23-.08s-9.21-20.61-9.6-21.42-.74-1.88-2.16-1.88-1.87,1.06-2.19,1.84-10,21.49-10,21.49H561.46s29.14-69.43,29.46-70.38a3,3,0,0,0-.15-2.8c-.6-1.52-27.75-74.37-27.75-74.37h36.64s8,17.58,8.57,18.68,1.2,1.59,1.87,1.59a2.17,2.17,0,0,0,2.2-1.55c.6-1.42,8.28-18.63,8.28-18.63h37L630,730.06a3.4,3.4,0,0,0-.15,2.62l29,71.09Zm129.62-61.9c-1.35,11.77-3.32,28.82-11.76,41.12-6.06,8.83-18.24,20.89-39.6,20.83C678,803.76,661.67,790.6,654,766.34c-7.36-23.12-5.18-51.59-1.12-68,4.37-17.68,15.06-42.07,48-42.83,4.11-.1,17.29.47,28.12,8.88s18.47,20.77,21.53,39.42S753.62,730.1,752.26,741.87Zm70.31-52.21H797.52c-1.53,0-3,.36-3,3v21.11a1.62,1.62,0,0,0,1.71,1.72h24.94v29.9H796a2.06,2.06,0,0,0-2.17,2.18v56.49l-31.09.06V655.82h59.84Zm70.29-.07H867.81c-1.53,0-3,.36-3,3v21.11a1.62,1.62,0,0,0,1.71,1.71h24.94v29.91H866.28a2.06,2.06,0,0,0-2.17,2.17V804l-31.1.06V655.75h59.85ZM937.14,804.2H903.05L903,655.66h34.17Zm82.3-107.64s-3.32-2.42-10.37-3c-5.84-.46-11,0-17,5.39-4.81,4.31-7.31,14.6-8,18.62s-1.34,16.85-.23,24.06,3.14,12.83,5.78,16.58,7.36,6.92,14.32,7.21,15.44-4.32,15.44-4.32v36.7a80.23,80.23,0,0,1-11.8,4.92c-7.46,2.54-15.59,2.35-25.67-.64-9.56-2.83-17.85-10-23.74-20.2s-9.05-23.33-9.92-29.42a156.75,156.75,0,0,1-1.47-25.17c.19-8.62,2-24.38,7.21-37.8s11.68-21.69,20.77-27c9.27-5.43,15.8-6.53,25.45-6.58,9.32,0,19.17,5.76,19.17,5.76Zm69.9-5.22H1063.5a2.34,2.34,0,0,0-2.62,2.62v20.77a2.11,2.11,0,0,0,2.26,2.27h23.07v23.58h-22.84c-1.17,0-2.41,0-2.41,2.41v23.92a2.15,2.15,0,0,0,2.19,2.19h26.19v35h-60.06V655.7h60.06Zm-388.61,7.82c-6.89.06-10.94,4.47-14.42,15.82-3.24,10.61-2.29,28.6,1.42,38.3s10.29,11.36,13.64,11.06,9-2.17,12.06-9.23,5.54-19.65,3.12-34.89S707.9,699.1,700.73,699.16Z"/><path id="R" class="cls-3" d="M1121.25,655.19h.39a1.52,1.52,0,0,0,.86-.2.68.68,0,0,0,.27-.6.62.62,0,0,0-.28-.58,1.66,1.66,0,0,0-.87-.18h-.37Zm0,1v2.2H1120v-5.74h1.68a2.9,2.9,0,0,1,1.73.42,1.55,1.55,0,0,1,.56,1.3,1.5,1.5,0,0,1-.28.9,1.85,1.85,0,0,1-.79.62l1.69,2.5h-1.35l-1.37-2.2Z"/><path class="cls-3" d="M1122,662.63a6.93,6.93,0,1,1,6.93-6.93A6.93,6.93,0,0,1,1122,662.63Zm0-12.52a5.59,5.59,0,1,0,5.58,5.59A5.59,5.59,0,0,0,1122,650.11Z"/><path d="M651.84,538.3H683.6v10.78H673.13v46.68H662V549.08h-10.2Z"/><path d="M701.06,538.3h11.1V560h19.18V538.3h11v57.46h-11V570.57H712.16v25.19h-11.1Z"/><path d="M765.55,538.3h31.37V549H776.41V559.4h20.51v10.51H776.41V585h20.51v10.74H765.55Z"/><path d="M548,898.58l-7.65,7.3q-7.81-8.25-17.57-8.25a19.25,19.25,0,0,0-19.51,19.51,20.45,20.45,0,0,0,2.5,10.2,17.81,17.81,0,0,0,7.06,7,20.48,20.48,0,0,0,10.15,2.55,21,21,0,0,0,8.7-1.78,31.43,31.43,0,0,0,8.67-6.47l7.41,7.73q-6.36,6.23-12,8.62a32.91,32.91,0,0,1-12.93,2.4q-13.39,0-21.93-8.49t-8.54-21.78a29.8,29.8,0,0,1,3.89-15.27,28.87,28.87,0,0,1,11.13-10.75A31.48,31.48,0,0,1,522.92,887a33.12,33.12,0,0,1,25,11.54Z"/><path d="M594.66,887a28.56,28.56,0,0,1,21,8.83,29.38,29.38,0,0,1,8.77,21.52,29,29,0,0,1-8.66,21.29,30,30,0,0,1-42.5-.23A30.19,30.19,0,0,1,594.66,887Zm-.12,10.71a18,18,0,0,0-13.41,5.54,19.3,19.3,0,0,0-5.44,14.1q0,9.54,6.84,15.08a18.79,18.79,0,0,0,12.2,4.34A17.82,17.82,0,0,0,608,931.18a20.28,20.28,0,0,0,0-27.75A18,18,0,0,0,594.54,897.75Z"/><path d="M650.29,888.49h10.65l13.33,40.08,13.44-40.08h10.65L708,946H697.42l-6.16-36.29L679.05,946h-9.64l-12.1-36.29L651,946H640.34Z"/><path d="M726.67,888.49h11.6q9.4,0,13.57,1.74a13.78,13.78,0,0,1,6.57,5.62,17.4,17.4,0,0,1,2.4,9.32,15.63,15.63,0,0,1-3.15,10,16.31,16.31,0,0,1-8.53,5.54q-3.17.9-11.52.9V946H726.67ZM737.61,911h3.47a18.86,18.86,0,0,0,5.71-.59,5.07,5.07,0,0,0,2.51-1.94,5.62,5.62,0,0,0,.92-3.27,5.23,5.23,0,0,0-2.58-4.86c-1.25-.76-3.56-1.14-6.95-1.14h-3.08Z"/><path d="M799,888.49h11.09L832.23,946H820.87l-4.5-11.84H792.92L788.25,946H776.88Zm5.62,15.23L797,923.45h15.37Z"/><path d="M850.73,888.49h10.49l24.59,37.81V888.49h10.94V946H886.22l-24.55-37.7V946H850.73Z"/><path d="M915.79,888.49h11.74l10.72,20.67,10.67-20.67h11.6L943.7,921.07V946h-11V921.07Z"/><path d="M849.89,1116.5l2.59-.38,3.28,8.53,1.18-9.18,2.19-.32,3.79,8.46.69-9.11,2.59-.38-1.1,14.27-2.53.37-3.84-8.56-1.2,9.3-2.5.36Z"/><path d="M870.66,1113.47l7.55-1.1.37,2.58-4.93.72.36,2.49,4.94-.71.36,2.52-4.93.72.53,3.64,4.93-.72.38,2.58-7.54,1.1Z"/><path d="M885.08,1125.48l-2-13.81,2.17-.32a11.53,11.53,0,0,1,2.81-.16,3.8,3.8,0,0,1,2.15.93,3.3,3.3,0,0,1,1,2,3.17,3.17,0,0,1-.13,1.48,3.68,3.68,0,0,1-.91,1.37,4.28,4.28,0,0,1,2.06,1.21,3.79,3.79,0,0,1,.89,2,4,4,0,0,1-.29,2.21,3.89,3.89,0,0,1-1.35,1.66,6,6,0,0,1-2.55.86Zm1-11.69.42,2.91.58-.08a2.2,2.2,0,0,0,1.37-.62,1.37,1.37,0,0,0,.3-1.16,1.27,1.27,0,0,0-.59-1,2,2,0,0,0-1.4-.19Zm.76,5.26.52,3.54.66-.1a4.16,4.16,0,0,0,2.15-.73,1.4,1.4,0,0,0,.39-1.29,1.7,1.7,0,0,0-.87-1.31,3.75,3.75,0,0,0-2.3-.19Z"/><path d="M896.63,1109.69l7.55-1.1.37,2.57-4.93.72.36,2.5,4.94-.72.37,2.53-4.94.71.53,3.64,4.93-.72.38,2.58-7.54,1.1Z"/><path d="M909,1107.88l3.12-.46a10.3,10.3,0,0,1,4.58.1,5.93,5.93,0,0,1,2.77,2.07,8.06,8.06,0,0,1,1.52,3.79,8.21,8.21,0,0,1-.1,3,6.35,6.35,0,0,1-1.14,2.43,5.4,5.4,0,0,1-1.85,1.52,14.57,14.57,0,0,1-3.72.88l-3.16.46Zm3,2.15,1.27,8.72,1.22-.18a6.16,6.16,0,0,0,2.56-.79,3.23,3.23,0,0,0,1.13-1.59,5.13,5.13,0,0,0,.16-2.48,4.57,4.57,0,0,0-1.73-3.23,4.94,4.94,0,0,0-3.71-.58Z"/><path d="M924.72,1105.59l2.61-.38,2,13.82-2.61.38Z"/><path d="M936.91,1103.82l2.67-.39,7.32,13-2.73.4-1.5-2.69L937,1115l-.71,3-2.74.4Zm1.88,3.46-1.16,5,3.7-.54Z"/><path d="M970.2,1101.27l-1.59,2.1a5.52,5.52,0,0,0-4.37-1.26A4.69,4.69,0,0,0,961,1104a4.47,4.47,0,0,0-.89,3.48,4.58,4.58,0,0,0,1.92,3.19,4.88,4.88,0,0,0,3.73.87,4.32,4.32,0,0,0,2.21-.9,4.09,4.09,0,0,0,1.25-2l-4,.58-.36-2.47,7-1,.1.58a6.85,6.85,0,0,1-.43,3.57,6.62,6.62,0,0,1-2.07,2.84,7.14,7.14,0,0,1-3.38,1.37,8,8,0,0,1-4-.38,6.9,6.9,0,0,1-3.05-2.28,7.46,7.46,0,0,1-1.53-3.58,7.05,7.05,0,0,1,1.12-5,7.27,7.27,0,0,1,5.25-3.23,8.77,8.77,0,0,1,3.47.18A7.79,7.79,0,0,1,970.2,1101.27Z"/><path d="M975.85,1098.14l2.79-.41a9.28,9.28,0,0,1,3.32-.06,3.3,3.3,0,0,1,1.76,1.13,4.17,4.17,0,0,1,.92,2.16,3.93,3.93,0,0,1-.32,2.37,4.05,4.05,0,0,1-1.77,1.67l4.17,5.67-2.87.41-4-5.39-.25,0,.86,5.85-2.63.39Zm3.42,5,.83-.12a3.26,3.26,0,0,0,1.67-.58,1.26,1.26,0,0,0,.32-1.17,1.38,1.38,0,0,0-.35-.75,1.32,1.32,0,0,0-.7-.39,4.78,4.78,0,0,0-1.46.06l-.72.11Z"/><path d="M995.71,1094.89a6.94,6.94,0,0,1,5.35,1.39,7.43,7.43,0,0,1,1.53,10.29,7.29,7.29,0,0,1-10.23,1.43,7.46,7.46,0,0,1-2.37-8.59,7.06,7.06,0,0,1,2.25-3A7.17,7.17,0,0,1,995.71,1094.89Zm.35,2.58a4.4,4.4,0,0,0-3,1.8,4.7,4.7,0,0,0-.82,3.58,4.59,4.59,0,0,0,5.26,4,4.29,4.29,0,0,0,3-1.81,4.92,4.92,0,0,0-1-6.67A4.31,4.31,0,0,0,996.06,1097.47Z"/><path d="M1007.71,1093.5l2.63-.39,1.31,8.94a4.63,4.63,0,0,0,.44,1.6,1.66,1.66,0,0,0,.78.67,2.09,2.09,0,0,0,1.16.12,2.23,2.23,0,0,0,1.15-.49,1.73,1.73,0,0,0,.58-.92,6.26,6.26,0,0,0-.08-1.91l-1.26-8.6,2.64-.39,1.2,8.24a12.18,12.18,0,0,1,.19,2.93,4.18,4.18,0,0,1-.67,1.69,4.14,4.14,0,0,1-1.37,1.33,5.1,5.1,0,0,1-1.95.66,5,5,0,0,1-2.72-.31,4,4,0,0,1-1.84-1.5,9.18,9.18,0,0,1-1-3.44Z"/><path d="M1022.51,1091.34l2.79-.41a9,9,0,0,1,3.32,0,3.34,3.34,0,0,1,1.78,1.12,4.17,4.17,0,0,1,.9,2.15,3.82,3.82,0,0,1-.4,2.52,3.93,3.93,0,0,1-1.86,1.63,11.59,11.59,0,0,1-2.74.62l.85,5.85-2.63.39Zm3.42,5,.83-.12a4.32,4.32,0,0,0,1.35-.35,1.2,1.2,0,0,0,.54-.55,1.39,1.39,0,0,0,.11-.82,1.29,1.29,0,0,0-.79-1.08,3.56,3.56,0,0,0-1.72,0l-.74.11Z"/></svg>